<?xml version="1.0" encoding="UTF-8"?>
<svg xmlns="http://www.w3.org/2000/svg" xmlns:xlink="http://www.w3.org/1999/xlink" width="1536pt" height="1536pt" viewBox="0 0 1536 1536" version="1.1">
<defs>
<clipPath id="clip1">
  <path d="M 0 90.371094 L 1536 90.371094 L 1536 1445.628906 L 0 1445.628906 Z M 0 90.371094 "/>
</clipPath>
</defs>
<g id="surface1">
<rect x="0" y="0" width="1536" height="1536" style="fill:rgb(100%,100%,100%);fill-opacity:1;stroke:none;"/>
<path style=" stroke:none;fill-rule:nonzero;fill:rgb(86.274719%,19.607544%,18.823242%);fill-opacity:1;" d="M 21.683594 95.371094 L 1514.316406 95.371094 C 1526.292969 95.371094 1536 105.078125 1536 117.054688 L 1536 1418.945312 C 1536 1430.921875 1526.292969 1440.628906 1514.316406 1440.628906 L 21.683594 1440.628906 C 9.707031 1440.628906 0 1430.921875 0 1418.945312 L 0 117.054688 C 0 105.078125 9.707031 95.371094 21.683594 95.371094 Z M 21.683594 95.371094 "/>
<g clip-path="url(#clip1)" clip-rule="nonzero">
<path style="fill:none;stroke-width:8;stroke-linecap:butt;stroke-linejoin:miter;stroke:rgb(86.274719%,19.607544%,18.823242%);stroke-opacity:1;stroke-miterlimit:4;" d="M 21.683594 0.00009375 L 1514.316406 0.00009375 C 1526.292969 0.00009375 1536 9.707125 1536 21.683687 L 1536 1323.574312 C 1536 1335.550875 1526.292969 1345.257906 1514.316406 1345.257906 L 21.683594 1345.257906 C 9.707031 1345.257906 0 1335.550875 0 1323.574312 L 0 21.683687 C 0 9.707125 9.707031 0.00009375 21.683594 0.00009375 Z M 21.683594 0.00009375 " transform="matrix(1,0,0,1,0,95.371)"/>
</g>
<path style=" stroke:none;fill-rule:nonzero;fill:rgb(99.215698%,96.470642%,89.019775%);fill-opacity:1;" d="M 322.96875 1438.035156 L 1213.03125 1438.035156 L 322.96875 547.976562 Z M 322.96875 1438.035156 "/>
<path style=" stroke:none;fill-rule:nonzero;fill:rgb(99.215698%,96.470642%,89.019775%);fill-opacity:1;" d="M 1213.03125 98.769531 L 322.96875 98.769531 L 1213.03125 988.828125 Z M 1213.03125 98.769531 "/>
</g>
</svg>
